HIERARCHY
ROOT root
{
	OFFSET 0.000000 0.000000 0.000000
	CHANNELS 6 Xposition Yposition Zposition Zrotation Yrotation Xrotation
	JOINT lhip
	{
		OFFSET 0.058581 -0.082280 -0.017664
		CHANNELS 3 Zrotation Yrotation Xrotation
		JOINT lknee
		{
			OFFSET 0.043451 -0.386469 0.008037
			CHANNELS 3 Zrotation Yrotation Xrotation
			JOINT lankle
			{
				OFFSET -0.014790 -0.426874 -0.037428
				CHANNELS 3 Zrotation Yrotation Xrotation
				JOINT ltoe
				{
					OFFSET 0.041054 -0.060286 0.122042
					CHANNELS 3 Zrotation Yrotation Xrotation
					End Site
					{
						OFFSET 0.000000 0.000000 0.000000
					}
				}
			}
		}
	}
	JOINT rhip
	{
		OFFSET -0.060310 -0.090513 -0.013543
		CHANNELS 3 Zrotation Yrotation Xrotation
		JOINT rknee
		{
			OFFSET -0.043257 -0.383688 -0.004843
			CHANNELS 3 Zrotation Yrotation Xrotation
			JOINT rankle
			{
				OFFSET 0.019056 -0.420046 -0.034562
				CHANNELS 3 Zrotation Yrotation Xrotation
				JOINT rtoe
				{
					OFFSET -0.034840 -0.062106 0.130323
					CHANNELS 3 Zrotation Yrotation Xrotation
					End Site
					{
						OFFSET 0.000000 0.000000 0.000000
					}
				}
			}
		}
	}
	JOINT lowerback
	{
		OFFSET 0.004439 0.124404 -0.038385
		CHANNELS 3 Zrotation Yrotation Xrotation
		JOINT upperback
		{
			OFFSET 0.004488 0.137956 0.026820
			CHANNELS 3 Zrotation Yrotation Xrotation
			JOINT chest
			{
				OFFSET -0.002265 0.056032 0.002855
				CHANNELS 3 Zrotation Yrotation Xrotation
				JOINT lowerneck
				{
					OFFSET -0.013390 0.211636 -0.033468
					CHANNELS 3 Zrotation Yrotation Xrotation
					JOINT upperneck
					{
						OFFSET 0.010113 0.088937 0.050410
						CHANNELS 3 Zrotation Yrotation Xrotation
						End Site
						{
							OFFSET 0.000000 0.000000 0.000000
						}
					}
				}
				JOINT lclavicle
				{
					OFFSET 0.071702 0.114000 -0.018898
					CHANNELS 3 Zrotation Yrotation Xrotation
					JOINT lshoulder
					{
						OFFSET 0.122921 0.045205 -0.019046
						CHANNELS 3 Zrotation Yrotation Xrotation
						JOINT lelbow
						{
							OFFSET 0.255332 -0.015649 -0.022946
							CHANNELS 3 Zrotation Yrotation Xrotation
							JOINT lwrist
							{
								OFFSET 0.265709 0.012698 -0.007375
								CHANNELS 3 Zrotation Yrotation Xrotation
								End Site
								{
									OFFSET 0.000000 0.000000 0.000000
								}
							}
						}
					}
				}
				JOINT rclavicle
				{
					OFFSET -0.082954 0.112472 -0.023707
					CHANNELS 3 Zrotation Yrotation Xrotation
					JOINT rshoulder
					{
						OFFSET -0.113228 0.046853 -0.008472
						CHANNELS 3 Zrotation Yrotation Xrotation
						JOINT relbow
						{
							OFFSET -0.260127 -0.014369 -0.031269
							CHANNELS 3 Zrotation Yrotation Xrotation
							JOINT rwrist
							{
								OFFSET -0.269108 0.006794 -0.006027
								CHANNELS 3 Zrotation Yrotation Xrotation
								End Site
								{
									OFFSET 0.000000 0.000000 0.000000
								}
							}
						}
					}
				}
			}
		}
	}
}
MOTION
Frames: 13
Frame Time: 0.033333
2.235718 0.791927 0.977340 -94.277926 2.738368 89.371283 6.953270 -0.495081 -6.043840 -1.242135 -2.539865 14.074034 -1.978218 10.938976 -20.546893 0.000000 -0.000000 0.000000 -1.759167 -0.644257 -12.839964 0.356409 -4.287474 17.516788 7.504527 -1.113953 -12.113570 0.000000 -0.000000 0.000000 -0.741862 3.919470 21.564881 2.575155 -0.159814 2.693685 1.517443 0.949239 4.085856 2.842473 2.846692 12.904236 1.607631 -8.092312 20.234419 -23.398039 0.153497 3.374931 -62.464205 -9.572773 11.406995 14.236706 -33.432053 7.777183 3.069998 -14.064948 -0.737216 26.152497 0.123375 4.504917 59.973372 2.249191 7.332457 -24.626928 30.809877 -8.621987 -1.695382 6.080507 -2.828754 
2.233779 0.793253 0.977567 -94.516305 2.693343 89.471787 6.965723 0.010965 -5.827643 -1.172495 -2.539619 13.801526 -1.886855 10.692228 -20.472948 0.000000 -0.000000 0.000000 -1.660700 -0.564380 -12.804220 0.226687 -4.390689 17.510191 7.369591 -0.807274 -12.172188 0.000000 -0.000000 0.000000 -0.822168 3.803442 21.909766 2.661984 -0.131044 3.137893 1.633511 0.987838 3.907697 2.795983 2.929098 13.333992 1.533246 -7.724889 20.129545 -23.553975 0.028716 3.429653 -62.496409 -9.265520 11.457938 14.510521 -33.261406 8.142026 1.814401 -13.265625 1.147372 26.238984 0.263441 4.742472 59.852194 1.832508 6.733481 -24.142820 29.489289 -8.037195 0.587775 5.832326 -3.051257 
2.232348 0.794372 0.977246 -94.303439 2.797287 89.901243 7.136211 -0.156871 -6.291173 -1.115056 -2.570115 13.961332 -1.979601 10.678565 -20.542183 0.000000 -0.000000 0.000000 -1.504262 -0.303535 -13.204765 0.215658 -4.543909 17.680496 7.154569 -1.105952 -12.368991 0.000000 -0.000000 0.000000 -0.567892 3.568047 21.945620 2.811195 -0.233154 3.026444 1.609453 0.831287 4.067976 2.844013 2.892688 13.754310 1.463602 -7.583046 20.374972 -23.362531 -0.006055 3.872899 -62.854880 -8.975152 11.819701 14.431457 -32.241642 9.777747 3.266572 -14.459849 1.606702 25.989099 0.148778 5.111622 60.117775 1.648534 6.577839 -23.476235 27.924697 -7.093447 -0.513544 6.332856 -3.579283 
2.227921 0.796112 0.977495 -94.462540 2.571620 90.011783 7.054572 0.022059 -5.665557 -1.227590 -2.625951 13.237075 -2.014535 10.865100 -20.545650 0.000000 -0.000000 0.000000 -1.594949 -0.138113 -13.174662 0.137466 -4.442919 18.018977 7.030648 -1.039773 -12.717636 0.000000 -0.000000 0.000000 -0.727978 3.416472 22.157646 2.835249 -0.237212 3.210842 1.699822 0.677190 4.111533 2.906909 2.865697 14.222940 1.477301 -7.322214 20.386415 -23.688505 0.175594 4.248459 -62.951944 -8.598593 11.679642 14.914914 -32.114059 9.821789 3.892953 -14.495473 1.834429 26.093025 0.057667 5.227209 60.404042 1.182063 6.312351 -23.084396 26.088529 -6.363753 -0.894411 6.057870 -2.899598 
2.226408 0.796609 0.977533 -94.519344 2.549125 90.110609 7.070740 0.096851 -5.540506 -1.254002 -2.660192 13.027308 -2.015933 10.904594 -20.555572 0.000000 -0.000000 0.000000 -1.587448 -0.111063 -13.183723 0.163348 -4.372123 18.033525 6.950309 -1.025837 -12.883730 0.000000 -0.000000 0.000000 -0.658099 3.313698 22.202902 2.813973 -0.266643 3.174741 1.679973 0.600443 4.119622 2.851970 2.867573 14.329791 1.509315 -7.201332 20.335670 -23.713520 0.319886 4.286823 -63.073726 -8.407013 11.639873 14.994662 -31.969726 10.028785 4.500246 -14.417468 1.786435 26.034772 -0.024863 5.261400 60.579258 1.086983 6.290221 -22.884859 25.571317 -5.929190 -1.398061 6.068348 -2.601622 
2.223301 0.798159 0.977522 -94.698189 2.544449 90.276735 7.172020 0.180342 -5.258715 -1.238869 -2.579582 12.656521 -2.091570 10.954966 -20.561467 0.000000 -0.000000 0.000000 -1.423718 0.103035 -13.191766 0.107742 -4.168501 18.122810 6.793341 -1.109023 -13.151609 0.000000 -0.000000 0.000000 -0.621304 3.151368 22.233728 2.804763 -0.282396 3.138551 1.682825 0.494230 4.106074 2.809752 2.934325 14.481357 1.478361 -7.046037 20.419984 -23.756662 0.447276 4.384413 -63.289999 -8.227082 11.590794 15.236079 -31.756606 9.780125 5.223941 -14.374911 1.251816 25.955057 -0.047452 5.481474 60.916810 0.872696 6.353160 -22.704789 24.740398 -5.574990 -2.093670 6.040463 -2.507670 
2.220647 0.799773 0.977426 -94.671638 2.517623 90.622201 7.278734 0.078477 -5.351621 -1.274136 -2.490597 12.543054 -2.131294 10.959919 -20.552955 0.000000 -0.000000 0.000000 -1.299631 0.464107 -13.561704 -0.017081 -3.985619 18.528796 6.763954 -1.355008 -13.378931 0.000000 -0.000000 0.000000 -0.580726 2.855250 22.245311 2.810653 -0.300888 2.849920 1.638715 0.359479 4.249800 2.894911 2.951436 14.236504 1.472121 -7.069568 20.581942 -23.787472 0.834238 4.198388 -63.423830 -8.490989 11.463395 15.210687 -31.871285 9.013363 4.061472 -14.112368 1.175922 25.868334 -0.472543 5.162351 61.166938 0.607350 6.667490 -22.522615 24.315828 -4.872766 -0.935365 5.860820 -1.733432 
2.216666 0.802047 0.977551 -95.098066 2.379065 90.461063 7.253973 0.164613 -4.555948 -1.255382 -2.376318 12.080381 -2.298040 11.137225 -20.614990 0.000000 -0.000000 0.000000 -1.178897 0.776745 -13.356191 -0.214915 -3.731699 19.004277 6.664058 -1.378813 -13.763488 0.000000 -0.000000 0.000000 -0.790190 2.795941 22.234786 2.805418 -0.304726 3.162401 1.643199 0.385781 4.282949 2.999977 3.078876 14.246412 1.543070 -7.148377 20.536382 -23.837744 0.667060 4.198563 -63.264017 -8.499031 11.563465 15.202511 -31.544246 9.386937 3.726279 -14.873312 1.172782 25.908968 -0.466536 5.080144 61.173098 0.287961 6.878279 -22.184082 24.030821 -3.535613 -0.149693 5.996181 -1.049960 
2.214071 0.804496 0.977440 -95.119720 2.305623 90.786838 7.325185 0.170883 -4.665357 -1.251102 -2.354328 12.013903 -2.365179 11.176807 -20.580651 0.000000 -0.000000 0.000000 -1.026148 1.053077 -13.750483 -0.362803 -3.692833 19.504031 6.498981 -1.592193 -14.027548 0.000000 -0.000000 0.000000 -0.760306 2.471594 22.115429 2.803575 -0.397692 3.049274 1.553085 0.337366 4.381247 3.050917 3.090035 14.135972 1.525848 -7.262413 20.672872 -23.817513 0.689451 3.819602 -63.104498 -8.831695 11.652114 14.799590 -31.530576 9.845166 3.201632 -14.521862 1.802071 25.848629 -0.565165 4.907857 61.219426 -0.006664 7.161813 -21.885321 23.877692 -2.303760 0.358222 5.900354 0.176461 
2.210894 0.807089 0.977481 -95.086846 2.138863 90.839099 7.223613 0.137747 -4.391565 -1.157462 -2.572150 11.867047 -2.397304 11.422714 -20.597514 0.000000 -0.000000 0.000000 -1.043991 1.117063 -13.691179 -0.326144 -3.608875 19.787540 6.406199 -1.737466 -14.375563 0.000000 -0.000000 0.000000 -0.709266 2.227644 22.265518 2.786582 -0.604563 2.884416 1.535031 0.198852 4.354730 2.956554 3.265814 14.213074 1.523211 -6.938912 20.719821 -23.761288 0.422445 3.868955 -62.991246 -9.167508 11.590728 14.619993 -31.893151 9.890969 3.363264 -14.345198 1.861107 25.614491 -0.530814 4.957946 61.419139 -0.318800 7.184625 -21.840346 23.735283 -1.819737 0.174536 5.604462 0.819518 
2.207312 0.810217 0.977251 -95.219977 2.012308 90.927142 7.344614 0.439285 -3.857925 -1.230807 -2.671204 11.226625 -2.474607 11.401033 -20.554484 0.000000 -0.000000 0.000000 -0.918838 1.267623 -13.695862 -0.398634 -3.381168 20.146101 6.280087 -1.795504 -14.854994 0.000000 -0.000000 0.000000 -0.720617 1.982636 22.189252 2.792923 -0.664675 2.939675 1.524597 0.201310 4.235043 2.970521 3.264124 14.406585 1.476246 -6.785475 20.757513 -23.736015 0.171098 3.999565 -62.929217 -9.604026 11.574417 14.802220 -32.514170 9.764223 3.090038 -13.695480 1.736595 25.518352 -0.624921 5.071697 61.460139 -0.647340 7.098170 -21.932171 23.725176 -1.525536 0.678039 5.047906 0.778752 
2.204873 0.813972 0.976995 -94.942488 1.862659 91.150360 7.455806 0.452331 -3.916635 -1.243148 -2.826045 11.172178 -2.653865 11.214667 -20.685590 0.000000 -0.000000 0.000000 -0.767007 1.665494 -13.944148 -0.553966 -3.485852 20.709945 6.113945 -2.328134 -15.440608 0.000000 -0.000000 0.000000 -0.725419 1.538886 22.202988 2.883269 -0.840782 2.812626 1.536791 0.012582 4.207722 2.852850 3.369328 14.275810 1.438514 -6.642446 20.861742 -23.726883 -0.103408 4.045026 -62.788031 -10.123075 11.598733 15.048145 -33.107964 9.346372 2.967854 -13.641059 1.517268 25.403474 -0.600077 5.023854 61.376269 -0.833073 7.060092 -21.860633 23.188803 -1.516211 1.023335 4.875281 0.510169 
2.201295 0.817896 0.976511 -94.930335 1.613932 91.255865 7.400706 0.292625 -3.664020 -1.182835 -2.911522 11.079623 -2.695283 11.487264 -20.848515 0.000000 -0.000000 0.000000 -0.740008 1.929721 -14.063052 -0.637562 -3.536761 21.402030 5.949153 -2.653366 -16.175319 0.000000 -0.000000 0.000000 -0.719887 1.196436 22.272330 2.836510 -0.969423 2.732499 1.492578 -0.164005 4.147655 2.649317 3.558848 14.239836 1.459660 -6.371033 20.895317 -23.732292 -0.481306 3.981545 -62.588156 -10.307387 11.775119 15.510082 -33.894953 8.663126 3.392436 -13.731757 0.859624 25.424667 -0.492867 5.044351 61.141652 -1.086909 7.032859 -21.679482 22.828331 -1.491089 0.422317 4.825127 0.839856 
